HIERARCHY
ROOT Hips
{
  OFFSET 267.745 86.9975 -272.335
  CHANNELS 6 Xposition Yposition Zposition Zrotation Xrotation Yrotation
  JOINT LeftUpLeg
  {
    OFFSET 8.64259 1.95398 -2.38835
    CHANNELS 3 Zrotation Xrotation Yrotation
    JOINT LeftLeg
    {
      OFFSET 43.7702 0 0
      CHANNELS 3 Zrotation Xrotation Yrotation
      JOINT LeftFoot
      {
        OFFSET 40.6238 0 0
        CHANNELS 3 Zrotation Xrotation Yrotation
        JOINT LeftToeBase
        {
          OFFSET 12.7242 0 0
          CHANNELS 3 Zrotation Xrotation Yrotation
          End Site
          {
            OFFSET 0 0 0
          }
        }
      }
    }
  }
  JOINT RightUpLeg
  {
    OFFSET -8.2249 1.95398 -2.59336
    CHANNELS 3 Zrotation Xrotation Yrotation
    JOINT RightLeg
    {
      OFFSET 43.5653 0 0
      CHANNELS 3 Zrotation Xrotation Yrotation
      JOINT RightFoot
      {
        OFFSET 40.6238 0 0
        CHANNELS 3 Zrotation Xrotation Yrotation
        JOINT RightToeBase
        {
          OFFSET 12.7242 0 0
          CHANNELS 3 Zrotation Xrotation Yrotation
          End Site
          {
            OFFSET 0 0 0
          }
        }
      }
    }
  }
  JOINT Spine
  {
    OFFSET 0.165834 0.87714 6.61349
    CHANNELS 3 Zrotation Xrotation Yrotation
    JOINT Spine1
    {
      OFFSET 7.38963 1.71661e-005 0
      CHANNELS 3 Zrotation Xrotation Yrotation
      JOINT Spine2
      {
        OFFSET 11.9445 1.14441e-005 0
        CHANNELS 3 Zrotation Xrotation Yrotation
        JOINT Spine3
        {
          OFFSET 14.7254 4.19617e-005 0
          CHANNELS 3 Zrotation Xrotation Yrotation
          JOINT Spine4
          {
            OFFSET 10.9679 0 0
            CHANNELS 3 Zrotation Xrotation Yrotation
            JOINT RightShoulder
            {
              OFFSET 2.46616 -1.6653 3.69651
              CHANNELS 3 Zrotation Xrotation Yrotation
              JOINT RightArm
              {
                OFFSET 13.0012 0 0
                CHANNELS 3 Zrotation Xrotation Yrotation
                JOINT RightForeArm
                {
                  OFFSET 28.7848 1.52588e-005 0
                  CHANNELS 3 Zrotation Xrotation Yrotation
                  JOINT RightHand
                  {
                    OFFSET 26.5688 1.52588e-005 0
                    CHANNELS 3 Zrotation Xrotation Yrotation
                    End Site
                    {
                      OFFSET 0 0 0
                    }
                  }
                }
              }
            }
            JOINT LeftShoulder
            {
              OFFSET 2.38034 -1.29275 -3.7523
              CHANNELS 3 Zrotation Xrotation Yrotation
              JOINT LeftArm
              {
                OFFSET 16.3182 6.10352e-005 0
                CHANNELS 3 Zrotation Xrotation Yrotation
                JOINT LeftForeArm
                {
                  OFFSET 27.0901 0 0
                  CHANNELS 3 Zrotation Xrotation Yrotation
                  JOINT LeftHand
                  {
                    OFFSET 24.5451 1.52588e-005 0
                    CHANNELS 3 Zrotation Xrotation Yrotation
                    End Site
                    {
                      OFFSET 0 0 0
                    }
                  }
                }
              }
            }
            JOINT Neck
            {
              OFFSET 5.0226 -0.0266342 0
              CHANNELS 3 Zrotation Xrotation Yrotation
              JOINT Head
              {
                OFFSET 6.69364 2.86102e-005 0
                CHANNELS 3 Zrotation Xrotation Yrotation
                End Site
                {
                  OFFSET 0 0 0
                }
              }
            }
          }
        }
      }
    }
  }
}
MOTION
Frames:	18
Frame Time:	0.0416667
-359.071 80.0346 -9.79533 37.7314 36.1051 111.66 -144.37 36.5969 98.2264 3.72492 28.4335 -49.3454 14.2065 -19.9692 -30.7179 -115.523 -68.9874 28.0587 146.461 68.5705 69.7652 -65.6907 -15.3782 20.5891 -61.3443 75.7205 49.4418 131.166 43.5141 71.1 -1.94186 2.59333 -86.6864 21.7064 -1.94208 7.26945 10.0161 -1.62115 7.3473 -12.3991 -4.03295 6.356 7.61356 -4.03294 6.35599 133.647 -87.3758 -49.8714 -3.49204 47.3806 71.8408 -122.016 15.8791 -85.005 -6.39722 2.83003 -57.6917 -85.0304 -35.3602 83.7285 112.067 -6.05331 -126.562 -103.972 51.9635 -30.7771 107.063 12.4705 4.53431 -5.62782 -28.8658 -49.0272 144.164 31.7436 -5.02238 
-359.631 80.0718 -9.95407 37.6817 35.8492 111.328 -143.775 36.5164 97.9422 6.67537 30.3178 -51.691 15.7703 -19.3824 -30.0748 -73.6562 -80.8065 68.7347 145.727 68.4876 71.0847 -66.5395 -16.0509 20.1 -62.4193 76.3368 51.6717 129.355 43.8324 72.6645 -2.00174 2.46008 -86.7538 21.9793 -2.08505 7.17934 10.2897 -1.7679 7.26353 -12.1322 -4.14245 6.22699 7.88042 -4.14243 6.22699 123.375 -87.2608 -60.3737 -4.82483 46.5535 72.5302 -130.817 15.6664 -82.4295 -5.35826 2.35704 -58.5655 -84.6153 -37.0945 84.7683 113.621 -5.74303 -126.907 -107.505 49.3401 -28.4178 108.113 11.2821 3.53617 -5.46107 -28.195 -47.7543 144.362 31.5814 -5.11122 
-361.219 80.1772 -10.4032 37.5527 35.1319 110.393 -142.183 36.139 97.1568 15.6132 34.7989 -58.726 20.7945 -17.5585 -27.956 30.4046 -52.2848 168.45 143.573 67.9454 74.9753 -68.7098 -17.8046 18.6827 -66.2115 78.0379 58.74 124.126 44.429 77.0893 -2.17213 2.08234 -86.9646 22.7546 -2.50206 6.89225 11.0672 -2.19706 6.995 -11.3754 -4.45456 5.8274 8.63729 -4.45456 5.82739 99.8476 -86.5272 -84.5914 -8.41279 44.0793 74.2873 -151.256 13.917 -76.9426 -3.73172 1.61665 -60.8481 -83.1091 -42.0341 88.0383 118.28 -4.92349 -127.822 -115.706 41.3082 -23.4007 110.314 7.2099 0.503273 -4.90297 -26.0735 -44.0047 144.837 31.2078 -5.20327 
-363.546 80.2842 -11.2723 29.4582 32.5919 110.875 -139.796 31.2657 92.8671 29.6902 34.8563 -69.2547 30.0837 -14.2513 -24.8118 44.9788 9.60722 168.875 151.622 72.9208 66.8281 -71.6249 -20.0579 17.2627 -75.227 80.5542 72.9845 116.117 44.5018 83.5961 -2.44901 0.987447 -87.8381 25.5132 -3.13213 6.77399 13.8265 -2.8319 6.90447 -8.6275 -5.0193 5.52517 11.3852 -5.01932 5.52516 79.806 -84.7325 -105.785 -13.4983 39.9749 76.472 -171.716 10.8612 -72.583 -3.72568 1.68819 -62.7014 -79.7547 -49.4738 93.9418 125.743 -3.57477 -129.204 -124.532 28.6459 -18.9625 110.866 0.0336055 -4.27608 -3.80777 -22.0801 -37.9432 145.316 31.053 -4.79095 
-368.771 81.3168 -9.456 157.327 37.0307 70.1952 -159.633 34.3933 -178.285 120.185 45.6574 168.929 50.8453 -9.62044 -6.96293 166.259 59.4301 46.8056 125.675 -35.0779 53.2538 -69.1781 -22.8842 2.29449 -87.8656 81.744 88.0953 106.738 43.2209 90.545 -2.1121 11.9754 -90.0687 2.91499 -4.24589 -0.179116 -8.749 -4.24964 0.00827585 -31.335 -3.99545 -1.44893 -11.3224 -3.99545 -1.44893 67.7963 -82.118 -119.332 -19.4625 34.4443 78.4264 170.727 7.89376 -69.5781 -5.51573 2.54877 -60.5731 -73.5607 -57.9719 102.832 134.196 -0.878858 -131.372 -131.739 14.5381 -16.0188 106.955 -7.78147 -9.82735 -2.32239 -15.6117 -30.1968 145.542 31.8395 -3.25247 
-373.615 79.5368 -10.3235 161.341 34.2794 68.6612 -159.577 33.5549 -174.871 116.883 31.2176 168.299 64.4874 1.38624 1.22836 -176.209 12.1055 17.8026 117.233 -41.485 46.7793 -73.3502 -25.7313 -0.447405 -118.573 83.7473 126.909 97.8284 40.6668 96.3337 -2.99705 11.9788 -89.9227 2.90912 -5.95596 0.0879628 -8.74818 -5.94631 0.350939 -31.3869 -5.7061 -1.71208 -11.3743 -5.70609 -1.71208 60.5578 -79.2341 -128.297 -26.1531 27.9158 79.7022 152.357 8.92947 -72.4506 -5.66391 2.35277 -20.3978 -63.9645 -65.6166 114.605 140.372 4.62897 -134.914 -136.953 0.890674 -13.4475 99.4749 -13.8812 -15.5904 -1.61226 -7.35755 -21.7722 145.709 33.2639 -0.803024 
-379.971 76.7567 -11.3725 164.839 31.4339 67.4932 -159.347 33.4293 -173.163 112.249 21.9487 167.037 73.8833 12.7304 5.42669 172.267 1.64284 14.2473 105.251 -47.2468 36.9668 -76.8381 -28.4438 -3.02558 -159.043 82.895 176.001 90.477 37.2707 99.966 -3.87804 11.9156 -89.7619 3.04081 -7.65246 0.397535 -8.60768 -7.62751 0.735938 -31.3171 -7.41611 -1.9338 -11.3044 -7.41612 -1.9338 55.9832 -76.3968 -134.607 -33.8126 21.0606 79.9353 138.537 1.07946 -88.6323 -3.86471 -3.53081 100.435 -51.5485 -71.1084 128.436 141.661 14.0992 -139.359 -140.409 -14.9941 -10.0875 91.7331 -19.6232 -22.5803 -2.00169 1.63019 -13.1811 145.867 35.0871 2.14613 
-387.503 74.1534 -12.7853 167.587 28.6977 66.7166 -158.05 34.1462 -173.73 106.452 17.2891 165.817 77.6431 20.7008 6.65864 161.274 -0.0368767 13.5555 88.3578 -51.5261 22.6336 -76.414 -30.4329 -5.11482 -179.171 80.3964 -156.907 84.9949 33.6746 101.37 -4.67271 11.8106 -89.6226 3.25948 -9.18475 0.682956 -8.37913 -9.14571 1.08994 -31.1685 -8.96177 -2.13209 -11.1559 -8.96176 -2.13209 53.2996 -73.8399 -138.852 -43.6125 14.8638 78.9489 122.463 -5.17252 -84.3581 -15.2138 -28.893 121.185 -38.6109 -74.1624 142.234 137.804 27.0553 -142.838 -150.085 -47.5693 -6.23162 84.2849 -25.8202 -31.5994 -2.96011 12.2115 -5.29521 145.303 39.038 6.10551 
-396.049 72.1166 -14.585 169.493 26.2087 66.2918 -154.657 35.5754 -176.741 100.474 14.6361 165.158 76.0863 24.8159 8.51328 153.321 -0.417702 13.4293 68.1963 -52.7536 5.28355 -71.3049 -31.6221 -6.431 172.653 78.8228 -144.427 81.1927 30.3422 100.977 -5.29712 11.6507 -89.5316 3.5896 -10.3955 0.899461 -8.03993 -10.3457 1.36106 -30.9032 -10.18 -2.30023 -10.8906 -10.1799 -2.30023 51.6748 -71.9917 -141.632 -59.403 10.1923 77.1398 120.968 -11.0941 -71.4037 -22.2004 -47.3662 127.92 -28.3703 -75.418 153.019 130.303 41.6378 -144.025 143.654 58.7435 -179.902 75.9744 -30.9448 -41.8051 -5.41019 23.1228 1.53034 144.304 44.7728 10.5102 
-405.354 70.739 -16.6953 170.558 24.0355 66.159 -148.157 37.322 177.449 96.5997 14.7206 165.044 72.0579 26.5805 9.7255 147.89 -0.577592 13.3853 48.2541 -50.5853 -11.5824 -61.2174 -31.9661 -6.71491 168.987 79.1575 -139.545 78.7528 27.4862 99.3048 -5.76464 11.4558 -89.5071 3.98789 -11.3189 1.00574 -7.63386 -11.2636 1.50935 -30.5594 -11.0911 -2.48641 -10.5467 -11.0911 -2.48641 51.021 -70.6229 -143.105 -89.5463 8.69645 75.1634 140.705 9.50212 -42.429 -51.2245 -68.8021 105.776 -20.9205 -75.8356 160.874 119.296 56.2943 -141.097 145.21 84.8993 -179.458 67.0892 -33.9624 -51.8194 -9.27812 33.2066 7.95429 142.766 51.3167 14.9677 
-415.082 69.9725 -18.9836 170.829 22.1962 66.2654 -138.386 38.4241 168.69 95.8141 16.2737 165.388 67.4502 27.0248 10.7971 144.213 -0.672383 13.3555 30.4291 -45.7319 -25.9991 -45.4458 -31.2974 -5.65166 169.223 81.7273 -141.959 77.3838 25.1458 96.7925 -6.09557 11.244 -89.5528 4.4154 -11.9975 0.986558 -7.20008 -11.9423 1.52132 -30.1735 -11.7312 -2.71684 -10.1609 -11.7312 -2.71684 51.2473 -69.5217 -143.455 -146.549 11.4045 77.6279 -143.637 -7.04267 -98.2155 -24.0307 -69.5984 139.23 -15.2465 -76.0058 166.827 101.295 69.3831 -129.682 -31.3643 71.8414 -0.143708 58.7061 -35.0487 -60.5766 -14.6679 42.7971 14.5464 139.81 58.8143 20.3365 
-424.887 69.7058 -21.2959 170.371 20.6772 66.5736 -126.553 37.5523 157.692 98.5217 18.9547 166.035 63.9402 27.0229 11.4803 141.707 -0.718642 13.3462 7.83396 -33.5335 -42.1896 -7.23297 -26.0262 -0.891309 -104.527 87.5834 118.361 76.8354 23.2725 93.7794 -6.31703 11.0314 -89.6634 4.83866 -12.484 0.843794 -6.77194 -12.4346 1.40113 -29.7797 -12.1514 -3.00528 -9.76704 -12.1513 -3.0053 52.2505 -68.4786 -142.891 149.774 9.7513 85.9651 61.9493 -77.2847 16.8396 50.8511 -80.4121 -123.21 -10.1091 -76.2828 172.076 62.1483 78.083 -95.3288 -28.6516 52.2314 -0.0672899 51.4684 -34.8619 -67.713 -22.7446 52.6753 22.6601 132.437 67.6076 29.7457 
-434.468 69.8177 -23.4897 169.247 19.4482 67.0614 -115.047 33.751 146.137 104.575 22.7488 166.947 62.5661 26.9882 11.5747 140.003 -0.710724 13.3728 2.40836 -30.7222 -45.3167 -0.525729 -25.3927 -0.0428718 -74.6384 87.495 88.742 76.8924 21.779 90.5289 -6.4562 10.8313 -89.8291 5.23021 -12.8292 0.589754 -6.37666 -12.7906 1.16333 -29.4069 -12.4036 -3.35534 -9.39427 -12.4036 -3.35532 53.8724 -67.3235 -141.665 113.141 3.87926 90.4267 47.808 -69.4489 0.0608569 37.946 -52.2995 -114.124 -4.40587 -76.8763 177.656 6.20245 77.1232 -42.4552 -26.3144 36.0013 -0.047126 45.447 -33.972 -73.3781 -34.7915 61.2282 34.3089 115.65 75.6587 48.0758 
-443.6 70.2107 -25.4583 167.504 18.4742 67.7184 -106.153 26.8961 135.553 113.62 27.9289 168.194 63.7872 26.8732 10.8736 138.89 -0.634324 13.4539 0.127494 -31.229 -46.1636 -0.440122 -25.4229 -0.0282338 -54.2226 88.1467 70.8751 77.3711 20.5743 87.2426 -6.53645 10.6553 -90.0388 5.56687 -13.0759 0.240347 -6.03715 -13.0525 0.825759 -29.0804 -12.5335 -3.76491 -9.06771 -12.5335 -3.76491 55.9194 -65.9289 -140.043 95.974 -0.656214 91.7333 54.699 -68.3333 0.0586862 30.8129 -36.3342 -103.725 3.1017 -77.903 -175.27 -19.7626 70.1333 -18.0788 -24.4757 22.3983 -0.0386285 40.4671 -32.7297 -77.8678 -62.1519 70.22 60.5609 52.3499 79.2178 111.949 
-452.118 70.815 -27.15 165.166 17.7184 68.5454 -101.177 17.3568 126.356 125.412 35.0746 169.935 67.6572 26.1927 9.12189 138.255 -0.458059 13.6206 -1.83312 -33.0692 -46.9931 -0.386161 -24.9654 -0.0177957 -25.0296 88.1245 43.5622 78.1031 19.5854 84.0872 -6.57784 10.5144 -90.2819 5.82712 -13.26 -0.187808 -5.77475 -13.2551 0.406595 -28.8235 -12.5802 -4.22933 -8.8109 -12.5802 -4.22934 58.1918 -64.1958 -138.286 87.6629 -4.84523 91.7838 60.1823 -66.418 0.0559677 27.2529 -28.0754 -95.449 14.4785 -79.3778 -164.732 -29.3246 61.8252 -8.89251 -22.8237 10.4741 -0.0340414 36.313 -31.3253 -81.4564 -0.150057 -3.61804 27.3571 171.177 9.31985 0.525684 
-459.906 71.5679 -28.6135 162.236 17.141 69.5543 -100.765 5.19523 118.03 140.265 45.1963 172.437 73.8079 23.8251 6.06898 138.063 -0.12011 13.928 -3.56584 -36.0948 -48.0112 -0.332635 -24.0896 -0.00781401 -7.15609 87.5616 26.9619 78.9253 18.7624 81.222 -6.59584 10.4181 -90.5482 5.99203 -13.4078 -0.678877 -5.60818 -13.4245 -0.077104 -28.657 -12.5738 -4.74176 -8.6443 -12.5738 -4.74177 60.5154 -62.0503 -136.62 83.6191 -8.2708 91.4337 64.2591 -64.0928 0.0536276 24.9817 -23.3408 -89.5582 34.0772 -81.0466 -146.511 -32.2892 52.1516 -5.31793 -20.5954 -0.77265 -0.0302504 32.7977 -29.8569 -84.357 85.7692 -52.7878 84.7387 152.57 -73.7311 -24.204 
-466.807 72.3557 -30.0475 158.683 16.6946 70.7683 -105.276 -11.2811 110.103 162.548 59.8833 176.503 81.53 16.1016 1.2732 138.346 0.466665 14.4471 -5.00348 -40.0845 -49.375 -0.295574 -23.0026 -0.000625011 -1.8232 86.8391 22.4156 79.6892 18.0782 78.7904 -6.59716 10.3717 -90.8301 6.05167 -13.5291 -1.21946 -5.54735 -13.5694 -0.611549 -28.5911 -12.5273 -5.29244 -8.57842 -12.5273 -5.29244 62.779 -59.4544 -135.188 81.9167 -11.7137 90.3452 67.4115 -60.9047 0.0507663 23.5145 -20.3952 -85.1748 68.342 -81.7226 -114.357 -31.6151 39.4303 -4.5038 -16.3981 -12.1905 -0.0248357 29.7836 -28.3797 -86.7234 63.9404 -47.5706 62.3862 168.465 -59.9986 -7.40248 
-472.404 72.951 -31.7185 154.447 16.3165 72.2205 -119.029 -22.6372 98.6898 176.954 78.347 179.647 83.0835 10.3966 -1.92618 139.113 1.33194 15.1875 -5.90287 -44.6814 -51.1527 -0.289347 -22.0763 0.00296449 -4.02721 86.129 25.125 80.2674 17.5315 76.9181 -6.5769 10.3742 -91.1218 6.009 -13.6111 -1.79847 -5.58955 -13.6768 -1.18627 -28.622 -12.4321 -5.86678 -8.60936 -12.4322 -5.86678 64.9505 -56.4132 -134.029 81.6388 -15.3752 88.6163 69.9259 -56.1118 0.0467267 22.6344 -18.4806 -81.6825 107.758 -78.9312 -78.0545 -28.4999 20.7888 -5.18989 -7.85267 -24.2611 -0.0128706 27.1845 -26.9412 -88.6708 51.3253 -38.2996 47.6118 174.344 -47.6842 -0.893715 
